<svg width="15" height="15" viewBox="0 0 15 15" fill="none" xmlns="http://www.w3.org/2000/svg">
<g clip-path="url(#clip0_216_237)">
<path d="M8.4918 14.006C8.42294 14.0088 8.37887 14.0143 8.3348 14.0143C7.39278 14.0143 6.45352 14.0115 5.51151 14.017C5.3793 14.017 5.34349 13.9812 5.34349 13.849C5.34624 11.6565 5.34624 9.4612 5.34624 7.26868C5.34624 7.21083 5.34624 7.15299 5.34624 7.07862C4.83392 7.07862 4.33537 7.07862 3.82855 7.07862C3.82855 6.29636 3.82855 5.52788 3.82855 4.73735C3.88089 4.73735 3.93047 4.73735 3.97729 4.73735C4.39046 4.73735 4.80362 4.7346 5.21678 4.74011C5.32145 4.74011 5.349 4.70981 5.349 4.6079C5.34349 3.99366 5.34349 3.37667 5.349 2.76243C5.35175 2.33274 5.42061 1.91407 5.61893 1.52569C5.90264 0.977559 6.35161 0.622238 6.91902 0.401883C7.38177 0.220091 7.8693 0.153985 8.35959 0.145721C9.15837 0.134704 9.95716 0.140212 10.7559 0.137458C10.8303 0.137458 10.8909 0.134704 10.8909 0.239372C10.8882 0.99684 10.8882 1.75431 10.8882 2.51178C10.8882 2.52004 10.8854 2.5283 10.8744 2.56411C10.8276 2.56411 10.7752 2.56411 10.7229 2.56411C10.2271 2.56411 9.73129 2.56136 9.2355 2.56411C8.94904 2.56411 8.71767 2.6798 8.57168 2.93045C8.52761 3.00482 8.50007 3.10122 8.50007 3.18937C8.4918 3.65762 8.50006 4.12587 8.49456 4.59412C8.49456 4.7043 8.52761 4.7346 8.63503 4.7346C9.32364 4.72909 10.0122 4.73185 10.7009 4.73185C10.7559 4.73185 10.8083 4.73185 10.9019 4.73185C10.8055 5.51961 10.7119 6.29085 10.6155 7.07036C9.89932 7.07036 9.20244 7.07036 8.4918 7.07036C8.4918 9.38683 8.4918 11.6895 8.4918 14.006Z" fill="white"/>
</g>
<defs>
<clipPath id="clip0_216_237">
<rect width="14.1027" height="14.1027" fill="white"/>
</clipPath>
</defs>
</svg>
