<svg width="15" height="15" viewBox="0 0 15 15" fill="none" xmlns="http://www.w3.org/2000/svg">
<g clip-path="url(#clip0_216_242)">
<path d="M4.77909 14.0116C4.77909 13.9455 4.77909 13.8821 4.77909 13.8188C4.77909 10.8523 4.77909 7.88849 4.77909 4.92197C4.77909 4.83934 4.77358 4.77323 4.89478 4.77323C5.77068 4.77874 6.64935 4.77598 7.52525 4.77598C7.54729 4.77598 7.56933 4.78149 7.60513 4.787C7.60513 5.17262 7.60513 5.55273 7.60513 5.9356C7.61615 5.93836 7.62441 5.94386 7.63543 5.94662C7.74561 5.80339 7.85028 5.65465 7.96596 5.51417C8.302 5.10101 8.72343 4.79802 9.21923 4.61623C9.48916 4.51707 9.78388 4.45647 10.0676 4.4427C10.4587 4.42617 10.8581 4.43168 11.2437 4.49779C11.8772 4.60521 12.4364 4.88616 12.8991 5.34615C13.3371 5.7786 13.6263 6.29919 13.7833 6.88588C13.8659 7.19713 13.9183 7.51664 13.9679 7.8334C14.0009 8.05376 14.0174 8.27962 14.0174 8.49998C14.0202 10.2904 14.0202 12.0807 14.0202 13.8711C14.0202 13.9152 14.0174 13.9593 14.0147 14.0171C13.9623 14.0171 13.9183 14.0171 13.8742 14.0171C13.0286 14.0171 12.1857 14.0144 11.3401 14.0199C11.1997 14.0199 11.1749 13.973 11.1749 13.8463C11.1776 12.1992 11.1831 10.5493 11.1721 8.90212C11.1694 8.61291 11.1418 8.31268 11.0674 8.03448C10.9325 7.54694 10.624 7.19438 10.1337 7.01534C9.72053 6.86384 9.30186 6.8363 8.87768 6.94372C8.40943 7.06216 8.08716 7.37341 7.84477 7.78383C7.65747 8.10058 7.62166 8.4504 7.61891 8.80021C7.60789 10.4722 7.6134 12.1413 7.6134 13.8133C7.6134 13.8766 7.6134 13.94 7.6134 14.0088C6.66312 14.0116 5.72937 14.0116 4.77909 14.0116Z" fill="white"/>
<path d="M3.00521 9.43615C3.00521 10.9043 3.00246 12.3724 3.00797 13.8405C3.00797 13.9727 2.98042 14.0223 2.83444 14.0195C1.99434 14.0113 1.15424 14.0113 0.314138 14.0195C0.176417 14.0195 0.146118 13.9727 0.146118 13.846C0.148873 10.896 0.148873 7.94325 0.146118 4.99325C0.146118 4.87481 0.179171 4.8335 0.300366 4.8335C1.14873 4.839 1.99709 4.839 2.84821 4.8335C2.98042 4.8335 3.00521 4.88308 3.00521 5.00152C3.00521 6.48065 3.00521 7.95977 3.00521 9.43615Z" fill="white"/>
<path d="M1.54535 0.132195C2.45155 0.11016 2.99418 0.768469 2.99693 1.57552C2.99969 2.40185 2.42125 3.01884 1.51229 3.01608C0.666683 3.01608 0.0689714 2.41011 0.0717258 1.55348C0.0744802 0.751942 0.655665 0.104651 1.54535 0.132195Z" fill="white"/>
</g>
<defs>
<clipPath id="clip0_216_242">
<rect width="14.1027" height="14.1027" fill="white"/>
</clipPath>
</defs>
</svg>
