<svg width="24" height="28" viewBox="0 0 24 28" fill="none" xmlns="http://www.w3.org/2000/svg">
<g clip-path="url(#clip0_216_256)">
<path fill-rule="evenodd" clip-rule="evenodd" d="M20.8286 9.54747C20.8286 4.72622 17.1216 0.685303 12.264 0.685303C7.40642 0.685303 3.68573 4.72896 3.68573 9.55159C3.68573 11.1424 3.9079 12.3424 4.6615 13.7139H4.6471L11.9808 27.854C12.2565 28.2318 12.5458 27.832 12.5458 27.832C12.2983 28.203 19.8796 13.7139 19.8796 13.7139H19.8734C20.6194 12.3424 20.8286 11.1397 20.8286 9.54747ZM8.31499 9.27593C8.31499 7.00142 10.0834 5.1589 12.264 5.1589C14.4439 5.1589 16.2137 7.00142 16.2137 9.27593C16.2137 11.5504 14.4439 13.3936 12.264 13.3936C10.0834 13.3936 8.31499 11.5511 8.31499 9.27593Z" fill="white"/>
</g>
<defs>
<clipPath id="clip0_216_256">
<rect width="24" height="28" fill="white"/>
</clipPath>
</defs>
</svg>
