<svg width="24" height="25" viewBox="0 0 24 25" fill="none" xmlns="http://www.w3.org/2000/svg">
<g clip-path="url(#clip0_216_260)">
<path d="M0.871918 1.65302L5.74692 0.528022C6.27661 0.406147 6.82036 0.682709 7.03599 1.17958L9.28599 6.42958C9.48286 6.88896 9.35161 7.42802 8.96255 7.74208L6.12192 10.0671C7.80942 13.6624 10.7579 16.653 14.4282 18.3733L16.7532 15.5327C17.0719 15.1436 17.6063 15.0124 18.0657 15.2093L23.3157 17.4593C23.8172 17.6796 24.0938 18.2233 23.9719 18.753L22.8469 23.628C22.7297 24.1343 22.2797 24.4999 21.7501 24.4999C9.74536 24.4999 4.00543e-05 14.7733 4.00543e-05 2.7499C4.00543e-05 2.2249 0.360981 1.77021 0.871918 1.65302Z" fill="white"/>
</g>
<defs>
<clipPath id="clip0_216_260">
<rect width="24" height="24" fill="white" transform="matrix(-1 0 0 1 24 0.5)"/>
</clipPath>
</defs>
</svg>
