<?xml version="1.0" standalone="no"?>
<!DOCTYPE svg PUBLIC "-//W3C//DTD SVG 20010904//EN"
 "http://www.w3.org/TR/2001/REC-SVG-20010904/DTD/svg10.dtd">
<svg version="1.0" xmlns="http://www.w3.org/2000/svg"
 width="796.000000pt" height="796.000000pt" viewBox="0 0 796.000000 796.000000"
 preserveAspectRatio="xMidYMid meet">
<metadata>
Created by potrace 1.14, written by Peter Selinger 2001-2017
</metadata>
<g transform="translate(0.000000,796.000000) scale(0.100000,-0.100000)"
fill="#000000" stroke="none">
<path d="M583 4738 c4 -935 2 -902 72 -1076 49 -121 118 -226 210 -318 116
-117 231 -190 380 -241 138 -47 209 -53 621 -53 l384 0 0 114 0 114 -407 5
c-383 4 -413 5 -481 26 -77 23 -192 76 -192 89 0 17 267 270 290 275 14 4 39
20 55 37 l29 30 -34 35 c-19 19 -39 35 -46 35 -17 0 -64 -58 -64 -78 0 -9 -64
-81 -142 -159 -138 -139 -142 -141 -165 -126 -12 8 -23 23 -23 32 0 24 271
291 296 291 11 0 34 15 52 33 l32 33 -38 37 -38 37 -38 -39 c-21 -22 -35 -44
-32 -50 8 -13 -264 -291 -285 -291 -21 0 -39 20 -39 43 0 24 264 287 288 287
10 0 35 17 55 38 l37 38 -38 37 -39 38 -36 -40 c-20 -22 -34 -46 -32 -53 3 -7
-58 -77 -138 -156 l-144 -144 -36 74 c-76 157 -71 85 -75 1036 l-3 852 -120 0
-120 0 4 -842z"/>
<path d="M7 5003 c-4 -3 -7 -57 -7 -120 l0 -113 263 2 262 3 0 115 0 115 -256
3 c-140 1 -258 -1 -262 -5z"/>
<path d="M880 4890 l0 -120 102 0 102 0 -37 -38 -37 -38 38 -37 c21 -20 46
-37 56 -37 26 0 296 -269 296 -295 0 -12 15 -35 33 -53 l33 -32 39 40 39 40
-40 34 c-21 20 -46 35 -54 36 -20 0 -290 271 -290 291 0 8 -13 28 -30 44 -16
16 -30 32 -30 37 0 4 137 8 303 8 268 0 313 -2 380 -19 73 -19 187 -68 187
-80 0 -16 -281 -285 -300 -286 -22 -2 -80 -52 -80 -70 0 -6 16 -26 35 -45 l35
-34 35 34 c19 19 35 43 35 55 0 13 49 70 138 158 109 109 143 137 165 137 23
0 27 -4 27 -28 0 -22 -27 -54 -138 -165 -86 -86 -145 -137 -158 -137 -11 0
-35 -16 -54 -35 l-34 -35 37 -37 37 -37 35 34 c19 19 35 41 35 50 0 8 64 79
143 158 150 150 187 172 187 113 0 -23 -25 -53 -142 -170 -78 -77 -149 -141
-158 -141 -9 0 -31 -16 -50 -35 l-34 -35 37 -37 37 -37 35 34 c19 19 35 43 35
55 0 24 267 295 291 295 10 0 27 -23 44 -62 62 -138 59 -79 62 -1080 l4 -918
115 0 115 0 -4 918 c-3 906 -3 918 -25 994 -60 215 -189 403 -372 539 -72 53
-217 123 -311 148 -120 33 -234 41 -601 41 l-348 0 0 -120z"/>
<path d="M953 4633 l-33 -37 32 -33 c18 -18 41 -33 53 -33 28 0 295 -268 295
-296 0 -20 57 -84 76 -84 6 0 25 16 44 35 l34 35 -34 35 c-19 19 -43 35 -55
35 -28 0 -295 268 -295 296 0 20 -58 84 -75 84 -6 -1 -25 -17 -42 -37z"/>
<path d="M865 4539 l-40 -41 39 -34 c22 -19 47 -34 55 -34 21 0 291 -270 291
-291 0 -8 16 -32 35 -54 l35 -38 27 24 c55 48 55 51 15 92 -22 22 -42 35 -51
32 -20 -8 -291 262 -291 290 0 12 -17 38 -38 58 l-38 37 -39 -41z"/>
<path d="M3187 4443 c-7 -11 -256 -560 -267 -588 -4 -11 -25 -56 -45 -100 -59
-127 -85 -187 -85 -197 0 -5 47 -7 107 -6 l107 3 31 80 31 80 224 0 223 0 35
-82 35 -83 103 0 c85 0 104 3 104 15 0 12 -132 322 -319 750 l-57 130 -111 3
c-61 1 -114 -1 -116 -5z m187 -363 l64 -165 -140 -3 c-78 -1 -143 -1 -145 2
-3 2 18 60 45 128 83 203 92 222 102 212 5 -5 38 -83 74 -174z"/>
<path d="M3947 4444 c-4 -4 -7 -207 -7 -451 l0 -444 98 3 97 3 3 118 3 117
122 0 123 0 59 -120 59 -120 103 0 c75 0 103 3 103 12 0 7 -30 72 -67 144
l-68 132 47 44 c27 25 59 69 75 103 37 80 39 195 3 268 -31 65 -103 135 -170
166 -54 25 -60 26 -315 29 -143 2 -264 0 -268 -4z m502 -202 c101 -51 106
-190 10 -247 -29 -17 -56 -21 -176 -23 l-143 -4 0 146 0 146 138 0 c111 0 144
-3 171 -18z"/>
<path d="M4905 4438 c-3 -7 -4 -209 -3 -448 l3 -435 363 -3 362 -2 0 89 c0 72
-3 90 -16 95 -9 3 -128 6 -265 6 l-249 0 -2 353 -3 352 -93 3 c-68 2 -94 -1
-97 -10z"/>
<path d="M6136 4422 c-8 -15 -43 -93 -79 -172 -36 -80 -76 -170 -90 -200 -157
-345 -217 -481 -217 -490 0 -7 36 -10 106 -8 l106 3 32 80 32 80 224 0 223 0
35 -82 34 -83 104 0 c83 0 104 3 104 14 0 12 -65 165 -324 761 l-52 120 -112
3 -111 3 -15 -29z m195 -338 l67 -169 -140 -3 c-78 -1 -143 0 -146 2 -8 9 132
346 143 342 6 -1 40 -79 76 -172z"/>
<path d="M6907 4443 c-4 -3 -7 -206 -7 -450 l0 -443 96 0 96 0 -4 305 c-1 167
0 301 3 297 3 -4 50 -70 104 -147 54 -77 154 -211 223 -297 l124 -158 89 0 89
0 0 450 0 451 -92 -3 -93 -3 2 -304 c0 -167 -2 -299 -6 -295 -4 5 -45 63 -91
129 -46 66 -146 200 -223 298 l-139 177 -82 0 c-46 0 -86 -3 -89 -7z"/>
<path d="M1450 4135 l-105 -105 110 -110 110 -110 110 110 109 110 -104 105
c-58 58 -110 105 -115 105 -6 0 -57 -47 -115 -105z"/>
<path d="M1805 3970 l-39 -40 34 -35 c19 -19 43 -35 55 -35 28 0 295 -268 295
-296 0 -11 16 -35 35 -54 l35 -34 40 39 40 39 -34 35 c-19 19 -44 35 -56 36
-29 2 -300 273 -300 300 0 12 -15 35 -33 53 l-33 32 -39 -40z"/>
<path d="M1712 3877 c-18 -18 -32 -37 -32 -41 0 -13 64 -66 80 -66 20 0 300
-281 300 -300 0 -8 15 -32 33 -53 l33 -38 37 32 c20 17 37 37 37 43 0 19 -64
76 -86 76 -27 0 -294 269 -294 296 0 17 -56 84 -71 84 -3 0 -19 -15 -37 -33z"/>
<path d="M1624 3779 l-38 -39 34 -35 c19 -19 43 -35 55 -35 28 0 295 -268 295
-296 0 -11 16 -35 35 -54 l35 -34 35 34 c19 19 35 39 35 46 0 14 -64 64 -82
64 -18 0 -298 282 -298 300 0 8 -15 32 -34 52 l-33 37 -39 -40z"/>
<path d="M2600 3165 l0 -115 2680 0 2680 0 0 115 0 115 -2680 0 -2680 0 0
-115z"/>
<path d="M2804 2777 c-2 -7 -3 -100 -2 -207 l3 -195 129 -3 c113 -2 134 0 171
18 42 21 75 66 75 105 0 29 -31 84 -51 90 -19 6 -19 7 1 32 41 53 14 130 -56
159 -45 19 -262 20 -270 1z m245 -94 c6 -11 6 -24 0 -35 -8 -15 -23 -18 -79
-18 l-70 0 0 35 0 35 70 0 c55 0 71 -3 79 -17z m19 -155 c18 -18 14 -46 -7
-58 -11 -5 -51 -10 -90 -10 l-71 0 0 40 0 40 78 0 c47 0 83 -5 90 -12z"/>
<path d="M3615 2778 c-3 -8 -4 -101 -3 -208 l3 -195 45 0 45 0 0 205 0 205
-43 3 c-28 2 -44 -1 -47 -10z"/>
<path d="M4258 2770 c-66 -35 -118 -120 -118 -191 0 -45 21 -100 52 -135 86
-98 241 -101 330 -7 98 103 67 267 -64 334 -50 26 -150 25 -200 -1z m188 -104
c30 -30 34 -40 34 -86 0 -46 -4 -56 -34 -86 -30 -30 -40 -34 -85 -34 -42 0
-56 5 -83 29 -31 27 -33 34 -33 91 0 57 2 64 33 91 27 24 41 29 83 29 45 0 55
-4 85 -34z"/>
<path d="M4967 2784 c-4 -4 -7 -25 -7 -46 l0 -38 70 0 70 0 2 -162 3 -163 45
0 45 0 3 163 2 162 71 0 70 0 -3 43 -3 42 -181 3 c-99 1 -183 -1 -187 -4z"/>
<path d="M5760 2580 l0 -210 168 2 167 3 3 42 3 42 -123 3 -123 3 -3 38 -3 37
105 0 106 0 0 45 0 45 -105 0 -105 0 0 35 0 35 120 0 120 0 0 45 0 45 -165 0
-165 0 0 -210z"/>
<path d="M6634 2776 c-103 -45 -152 -177 -105 -282 38 -84 102 -124 198 -124
68 0 133 28 164 71 17 24 19 32 8 45 -29 36 -48 37 -85 5 -29 -26 -43 -31 -85
-31 -45 0 -55 4 -85 34 -32 32 -40 57 -34 111 10 91 126 128 203 64 l37 -30
30 21 c36 25 35 24 10 60 -44 62 -176 90 -256 56z"/>
<path d="M7345 2778 c-3 -8 -4 -101 -3 -208 l3 -195 45 0 45 0 3 83 3 82 84 0
84 0 3 -82 3 -83 45 0 45 0 3 208 2 208 -47 -3 -48 -3 -3 -77 -3 -78 -84 0
-84 0 -3 78 -3 77 -43 3 c-28 2 -44 -1 -47 -10z"/>
</g>
</svg>
